<?xml version="1.0" encoding="UTF-8" standalone="no"?>
<!DOCTYPE svg PUBLIC "-//W3C//DTD SVG 1.1//EN" "http://www.w3.org/Graphics/SVG/1.1/DTD/svg11.dtd">
<svg width="100%" height="100%" viewBox="0 0 473 401" version="1.1" xmlns="http://www.w3.org/2000/svg" xmlns:xlink="http://www.w3.org/1999/xlink"  style="fill-rule:evenodd;clip-rule:evenodd;stroke-linejoin:round;stroke-miterlimit:2;">
    <g transform="matrix(1,0,0,1,-22.9988,-48.4101)">
        <g transform="matrix(1,0,0,1,-3.43321,-0.22748)">
            <g transform="matrix(1,0,0,1,0.433212,0.22748)">
                <path d="M72.916,101.699C72.916,101.699 46.372,194.943 153.512,311.816C297.013,468.353 476.117,411.438 476.117,411.438C476.117,411.438 262.019,516.867 113.159,372.452C30.807,292.559 13.186,205.161 33.981,157.825C43.139,136.979 72.916,101.699 72.916,101.699Z"/>
            </g>
            <g transform="matrix(1,0,0,1,0.433212,0.22748)">
                <path d="M292.07,388.451C292.07,388.451 339.728,415.222 390.852,414.012C441.976,412.801 498.373,370.329 498.373,370.329C498.373,370.329 459.882,379.956 445.814,384.736C379.984,407.104 292.07,388.451 292.07,388.451Z"/>
            </g>
            <g transform="matrix(1,0,0,1,0.433212,0.22748)">
                <path d="M189.237,271.35C189.237,271.35 200.265,248.43 210.539,204.507C221.739,156.627 237.834,92.429 263.224,68.182C308.379,25.06 422.878,65.913 422.878,65.913C422.878,65.913 380.299,70.6 358.799,124.381C347.828,151.823 332.042,202.326 332.042,202.326C332.042,202.326 324.862,240.521 297.423,250.222C283.181,255.257 189.237,271.35 189.237,271.35Z"/>
            </g>
            <g transform="matrix(1,0,0,1,0.433212,0.22748)">
                <path d="M76.501,157.667L75.411,139.057C75.411,139.057 88.95,117.754 129.298,121.114C175.875,124.993 208.914,182.243 208.914,182.243L192.586,239.997C192.586,239.997 122.837,168.705 94.57,159.43C79.29,154.416 76.501,157.667 76.501,157.667Z"/>
            </g>
            <g transform="matrix(1,0,0,1,0.433212,0.22748)">
                <path d="M211.431,174.673L227.345,114.618C227.345,114.618 186.311,75.302 134.232,73.473C70.876,71.248 75.927,132.079 75.927,132.079C75.927,132.079 86.206,113.02 121.858,113.297C186.715,113.802 211.431,174.673 211.431,174.673Z"/>
            </g>
            <g transform="matrix(1,0,0,1,0.433212,0.22748)">
                <path d="M368.484,114.953L389.026,91.073C389.026,91.073 408.191,96.365 427.216,124.543C468.801,186.134 417.639,253.074 417.639,253.074C417.639,253.074 445.282,196.321 404.622,147.542C381.9,120.283 368.484,114.953 368.484,114.953Z"/>
            </g>
            <g transform="matrix(1,0,0,1,0.433212,0.22748)">
                <path d="M420.988,257.969C420.988,257.969 461.94,216.782 449.741,154.303C439.206,100.352 399.216,87.813 399.216,87.813C399.216,87.813 408.199,75.797 426.287,75.458C449.933,75.015 478.966,103.14 476.554,172.595C475.019,216.803 420.988,257.969 420.988,257.969Z"/>
            </g>
        </g>
    </g>
</svg>
